<svg width="1920" height="1080" viewBox="0 0 1920 1080" fill="none" xmlns="http://www.w3.org/2000/svg">
<g clip-path="url(#clip0_9_213)">
<rect width="1920" height="1080" fill="#1A0935"/>
<path d="M458 705H381L343.5 1070L585.5 980L458 705Z" fill="#0A0614"/>
<path d="M286.5 357L436 665L161 705L286.5 357Z" fill="#0A0614"/>
<path d="M304 308.5L381 126L735.5 333L471.5 652L304 308.5Z" fill="#0A0614"/>
<path d="M381 95L423 0.5L726.5 -6L836.5 60C790.333 133.333 698 279.1 698 275.5C698 271.9 486.667 153.667 381 95Z" fill="#0A0614"/>
<path d="M977.5 867.5H764L592.5 918.5C611.5 958 649.1 1037 647.5 1037H720L779.5 1079H995L977.5 867.5Z" fill="#0A0614"/>
<path d="M563.5 1079L612 1054.5L592.5 999.5C520.5 1026 377.4 1079 381 1079H563.5Z" fill="#0A0614"/>
<path d="M1070 546.5L740 760C751.667 787.833 774.6 843.9 773 845.5C771.4 847.1 1105.33 828.5 1272.5 819L1070 546.5Z" fill="#0A0614"/>
<path d="M1017 1068L993 865.5L1285.5 845.5L1398 1010.5L1017 1068Z" fill="#0A0614"/>
<path d="M1252.5 749L1420 639L1494.5 988.5C1474.35 995.216 1436.51 1008.08 1433.04 1010.2C1433.1 1010.4 1433.09 1010.5 1433 1010.5C1432.7 1010.5 1432.72 1010.4 1433.04 1010.2C1430.75 1002.16 1312.68 834.07 1252.5 749Z" fill="#0A0614"/>
<path d="M1494.5 832.5H1739C1740.6 832.5 1750 908.833 1754.5 947C1680.22 959.98 1537.74 985.138 1526.05 988.194C1525.9 988.396 1525.71 988.5 1525.5 988.5C1525.08 988.5 1525.28 988.395 1526.05 988.194C1530.76 981.983 1507.25 882.858 1494.5 832.5Z" fill="#0A0614"/>
<path d="M1941.5 689.5L1739 597L1778.5 947C1807.17 941.833 1864.9 932.4 1866.5 936C1868.1 939.6 1917.17 773.167 1941.5 689.5Z" fill="#0A0614"/>
<path d="M1941.5 947L1789.5 984.5L1805 1079H1957L1941.5 947Z" fill="#0A0614"/>
<path d="M1750 986.5L1435 1043.5V1081H1776.5L1750 986.5Z" fill="#0A0614"/>
<path d="M1402 1043.5L1232.5 1081H1402V1043.5Z" fill="#0A0614"/>
<path d="M1076.5 -30.5L874 220.5L979.5 361.5L1191 293C1221.83 185.167 1283 -30.5 1281 -30.5H1076.5Z" fill="#0A0614"/>
<path d="M847.5 77.5L729 293L757.5 313L885 146L847.5 77.5Z" fill="#0A0614"/>
<path d="M874 47L902.5 -8.5H1021.5L902.5 128L874 47Z" fill="#0A0614"/>
<path d="M874 -30.5L847.5 47C822.667 28.5 773.8 -8.5 777 -8.5C780.2 -8.5 843 -23.1667 874 -30.5Z" fill="#0A0614"/>
<path d="M1215.05 275.465C1217.53 272.534 1276.23 85.4236 1305.5 -8.5L1578 113L1565 161C1449.12 198.694 1219.18 273.616 1215.05 275.465C1215.03 275.488 1215.01 275.5 1215 275.5C1214.98 275.5 1215 275.488 1215.05 275.465Z" fill="#0A0614"/>
<path d="M1499 47V5L1926 -8.5C1909 54.8491 1877.37 176.153 1876.99 190.644C1877.73 191.247 1877.92 191.707 1877.5 192C1877.12 192.263 1876.96 191.784 1876.99 190.644C1868.64 183.841 1791.03 158.706 1750 146L1747.5 102L1664 47C1637.67 60.1667 1585.4 86.9 1587 88.5C1588.6 90.1 1529 61.5 1499 47Z" fill="#0A0614"/>
<path d="M1897.5 192L1943.5 47V220.5L1897.5 192Z" fill="#0A0614"/>
<path d="M1374.5 246.5L1215 313C1245.17 436.167 1305.5 681.1 1305.5 675.5C1305.5 669.9 1434.5 553.167 1499 495.5L1374.5 246.5Z" fill="#0A0614"/>
<path d="M1182.5 323L992.5 382L1232.5 724.5L1281 692.5L1182.5 323Z" fill="#0A0614"/>
<path d="M1664 220.5L1578 192L1419 246.5L1547 495.5L1664 434V220.5Z" fill="#0A0614"/>
<path d="M1860 220.5L1734.5 192L1692.5 220.5L1734.5 569.5L1943.5 641L1860 220.5Z" fill="#0A0614"/>
<path d="M1889.5 231.5L1926 246.5H1943.5V404L1889.5 231.5Z" fill="#0A0614"/>
<path d="M167 47V5L374 -8.5C352.045 45.4337 310.043 150.851 309.752 160.316C310.131 160.766 310.222 161 310 161C309.818 161 309.738 160.767 309.752 160.316C303.302 152.677 213.594 82.8899 167 47Z" fill="#0A0614"/>
<path d="M310 192L39 5L-15.5 -8.5L-3 192L283 293L310 192Z" fill="#0A0614"/>
<path d="M132.5 47L95.5 -8.5H132.5V47Z" fill="#0A0614"/>
<path d="M248.5 323L-15.5 246.5L71 675.5L117.5 692.5L248.5 323Z" fill="#0A0614"/>
<path d="M-15.5 875L71 707.5L117.5 724.5L31.5 919.5L-15.5 875Z" fill="#0A0614"/>
<path d="M345 707.5L167 724.5L132.5 771.5L345 848V707.5Z" fill="#0A0614"/>
<path d="M852.5 245.5L480.5 682L586 886.5L743 850L708.5 749L1052.5 527.5L852.5 245.5Z" fill="#0A0614"/>
<path d="M1502 804.5H1734.5L1700 593L1450 624L1502 804.5Z" fill="#0A0614"/>
<path d="M81.0001 917C78.6001 912.2 111 841 127.5 806L318 882V1095.5H253.5C250.5 1095.5 84.0001 923 81.0001 917Z" fill="#0A0614"/>
<path d="M22.5001 1110L157 1046L60.5 955H-30.4999C-40.0999 955 0.833443 1058.33 22.5001 1110Z" fill="#0A0614"/>
<path d="M1679 481L1544.5 519C1527.83 536.5 1495.1 571.5 1497.5 571.5H1705.5L1679 481Z" fill="#0A0614"/>
<path d="M44.5 678L12 542.5C1.6 542.5 4.16667 676.167 8.5 743L44.5 678Z" fill="#0A0614"/>
<path d="M443.597 702.5L444.269 703.948L571.769 978.948L572.905 981.401L570.371 982.343L328.371 1072.34L324.603 1073.75L325.013 1069.74L362.513 704.744L362.744 702.5H443.597ZM272.749 355.908L422.249 663.908L423.741 666.982L420.359 667.474L145.359 707.474L141.233 708.074L142.648 704.152L268.148 356.152L270.16 350.574L272.749 355.908ZM366.261 123.841L720.761 330.841L723.303 332.326L721.426 334.594L457.426 653.594L454.953 656.582L453.253 653.096L285.753 309.596L285.255 308.575L285.696 307.528L362.696 125.028L363.803 122.406L366.261 123.841ZM711.786 -8.14355L821.786 57.8564L823.977 59.1699L822.615 61.332C799.53 98.0012 764.902 152.782 736.044 197.946C721.616 220.527 708.625 240.712 699.239 255.03C694.548 262.186 690.747 267.892 688.114 271.703C686.803 273.6 685.756 275.065 685.024 276.01C684.678 276.457 684.325 276.889 684.016 277.192C683.931 277.275 683.816 277.383 683.678 277.489C683.572 277.57 683.297 277.776 682.904 277.916C682.56 278.038 681.386 278.345 680.353 277.423C680.13 277.224 679.965 277.01 679.844 276.799C679.831 276.788 679.818 276.776 679.804 276.764C679.486 276.502 678.956 276.114 678.188 275.587C676.664 274.544 674.384 273.085 671.4 271.244C665.443 267.569 656.797 262.439 646.069 256.188C624.62 243.69 594.913 226.746 561.895 208.076C495.861 170.739 416.616 126.517 363.786 97.1855L361.786 96.0752L362.716 93.9844L405.36 -1.96582L406.946 -1.99902L710.446 -8.49902L711.168 -8.51465L711.786 -8.14355Z" fill="#4A4267" stroke="#0A0614" stroke-width="5"/>
<path d="M578.856 998.665L598.356 1053.67L599.092 1055.74L597.128 1056.73L548.628 1081.23L548.095 1081.5H365C364.902 1081.5 364.742 1081.5 364.551 1081.46C364.388 1081.44 364.018 1081.36 363.62 1081.11C363.162 1080.83 362.603 1080.26 362.464 1079.36C362.341 1078.58 362.62 1077.98 362.765 1077.73C363.036 1077.25 363.4 1076.98 363.457 1076.94C363.587 1076.83 363.71 1076.76 363.793 1076.71C364.099 1076.52 364.526 1076.32 364.956 1076.12C365.875 1075.7 367.306 1075.11 369.164 1074.35C372.895 1072.84 378.488 1070.66 385.508 1067.97C399.552 1062.58 419.361 1055.13 441.525 1046.85C485.855 1030.28 539.634 1010.41 575.636 997.154L578.01 996.28L578.856 998.665ZM963.802 865L963.992 867.294L981.492 1078.79L981.716 1081.5H762.707L762.058 1081.04L703.207 1039.5H631.5V1036.61C631.405 1036.22 631.169 1035.54 630.802 1034.6C630.332 1034.74 629.905 1035.02 629.586 1035.42C629.204 1035.89 629.108 1036.36 629.078 1036.55C629.043 1036.77 629.048 1036.94 629.052 1037.01C629.057 1037.1 629.066 1037.16 629.07 1037.18C629.078 1037.23 629.067 1037.15 628.978 1036.88C628.815 1036.38 628.512 1035.58 628.06 1034.47C627.165 1032.28 625.767 1029.07 623.971 1025.06C620.384 1017.06 615.248 1005.96 609.462 993.624C597.892 968.947 583.745 939.33 574.247 919.584L572.975 916.939L575.788 916.104L747.287 865.104L747.636 865H963.802Z" fill="#4A4267" stroke="#0A0614" stroke-width="5"/>
<path d="M1927.98 946.708L1943.48 1078.71L1943.81 1081.5H1786.88L1786.53 1079.4L1771.03 984.904L1770.66 982.626L1772.9 982.073L1924.9 944.573L1927.65 943.894L1927.98 946.708ZM1271.57 844.092L1384.07 1009.09L1386.31 1012.38L1382.37 1012.97L1001.37 1070.47L998.821 1070.86L998.518 1068.29L974.518 865.794L974.208 863.186L976.829 863.006L1269.33 843.006L1270.76 842.908L1271.57 844.092ZM1406.45 638.479L1480.95 987.979L1481.41 990.165L1479.29 990.872C1469.22 994.228 1454.74 999.12 1442.34 1003.44C1436.14 1005.59 1430.47 1007.6 1426.14 1009.21C1423.98 1010.01 1422.16 1010.7 1420.79 1011.25C1420.02 1011.56 1419.45 1011.81 1419.04 1011.99C1418.97 1012.08 1418.9 1012.17 1418.82 1012.25C1418.24 1012.83 1417.53 1013 1417 1013C1416.86 1013 1416.44 1013 1415.98 1012.83C1415.74 1012.74 1415.25 1012.52 1414.84 1012.01C1414.4 1011.46 1414.24 1010.8 1414.3 1010.19C1414.29 1010.18 1414.29 1010.16 1414.28 1010.15C1414.02 1009.65 1413.64 1008.98 1413.15 1008.15C1412.17 1006.5 1410.77 1004.27 1408.99 1001.51C1405.44 996.006 1400.42 988.467 1394.26 979.362C1381.93 961.157 1365.09 936.743 1346.43 909.915C1309.11 856.261 1264.55 792.976 1234.46 750.444L1232.96 748.331L1235.13 746.91L1402.63 636.91L1405.68 634.904L1406.45 638.479ZM1723 830C1724.26 830 1724.94 830.873 1725.05 831.017C1725.26 831.289 1725.39 831.558 1725.46 831.703C1725.6 832.021 1725.71 832.38 1725.8 832.697C1725.98 833.364 1726.18 834.282 1726.4 835.379C1726.82 837.592 1727.35 840.764 1727.94 844.648C1729.12 852.428 1730.58 863.183 1732.14 875.114C1735.26 898.982 1738.73 927.618 1740.98 946.707L1741.26 949.056L1738.93 949.463C1701.79 955.952 1647.6 965.486 1601.24 973.779C1556.05 981.864 1518.49 988.735 1511.22 990.479C1510.76 990.788 1510.18 991 1509.5 991C1509.41 991 1509.27 990.998 1509.13 990.983C1509.06 990.977 1508.67 990.944 1508.25 990.747C1508.05 990.654 1507.48 990.366 1507.1 989.688C1506.62 988.824 1506.75 987.927 1507.06 987.33C1507.3 986.853 1507.63 986.579 1507.75 986.48C1507.87 986.384 1507.99 986.313 1508.07 986.265C1508.09 986.127 1508.11 985.967 1508.12 985.783C1508.19 984.871 1508.18 983.595 1508.07 981.945C1507.86 978.659 1507.3 974.171 1506.43 968.721C1504.7 957.836 1501.82 943.342 1498.38 927.43C1491.5 895.616 1482.45 858.276 1476.08 833.113L1475.29 830H1723ZM1724.04 594.726L1926.54 687.226L1928.5 688.124L1927.9 690.198C1915.73 732.035 1897.38 794.568 1881.87 846.194C1874.11 872.005 1867.07 895.101 1861.85 911.524C1859.25 919.731 1857.1 926.296 1855.54 930.705C1854.77 932.898 1854.12 934.613 1853.63 935.741C1853.4 936.27 1853.14 936.818 1852.87 937.229C1852.79 937.342 1852.69 937.49 1852.55 937.643C1852.44 937.772 1852.18 938.036 1851.79 938.246C1851.38 938.47 1850.55 938.756 1849.6 938.366C1849.28 938.235 1849.02 938.059 1848.83 937.873C1848.52 937.814 1848.04 937.755 1847.33 937.725C1845.69 937.655 1843.31 937.739 1840.29 937.967C1834.29 938.42 1826.09 939.413 1817 940.688C1798.82 943.236 1777.26 946.88 1762.94 949.46L1760.32 949.934L1760.02 947.28L1720.52 597.28L1720.02 592.891L1724.04 594.726ZM1056.01 545.009L1258.51 817.509L1261.27 821.232L1256.64 821.496C1173.06 826.246 1047.78 833.272 943.598 838.909C891.507 841.728 844.686 844.2 810.987 845.867C794.139 846.701 780.563 847.334 771.247 847.708C766.592 847.895 762.986 848.019 760.562 848.07C759.357 848.096 758.413 848.103 757.77 848.091C757.465 848.085 757.151 848.074 756.893 848.045C756.816 848.036 756.512 848.005 756.186 847.889C756.087 847.852 755.865 847.75 755.737 847.68C755.557 847.563 755.155 847.209 754.951 846.955C754.718 846.548 754.495 845.575 754.539 845.039C754.544 845.023 754.549 845.007 754.555 844.99C754.554 844.989 754.555 844.987 754.555 844.986C754.495 844.624 754.356 844.036 754.116 843.194C753.642 841.533 752.854 839.163 751.805 836.219C749.712 830.344 746.643 822.347 743.149 813.506C736.166 795.832 727.524 774.875 721.694 760.967L720.886 759.037L722.642 757.901L1052.64 544.401L1054.61 543.128L1056.01 545.009ZM755.232 843.732C754.818 844.147 754.681 844.587 754.636 844.764C754.635 844.768 754.633 844.773 754.632 844.777C754.794 844.38 755.068 843.918 755.232 843.732Z" fill="#4A4267" stroke="#0A0614" stroke-width="5"/>
<path d="M1388.5 1083.5H1216.5L1215.96 1078.56L1385.46 1041.06L1388.5 1040.39V1083.5ZM1736.41 985.825L1762.91 1080.33L1763.8 1083.5H1416.5V1041.41L1418.55 1041.04L1733.55 984.04L1735.79 983.635L1736.41 985.825ZM55.8584 705.152L102.358 722.152L104.864 723.068L103.787 725.509L17.7871 920.509L16.3564 923.754L13.7812 921.315L-33.2188 876.815L-34.584 875.523L-33.7217 873.853L52.7783 706.353L53.7891 704.396L55.8584 705.152ZM331.5 851.557L328.153 850.353L112.504 772.719L114.484 770.021L148.984 723.021L149.647 722.118L150.763 722.012L328.763 705.012L331.5 704.75V851.557ZM1168.92 322.356L1267.42 691.856L1267.88 693.596L1266.38 694.587L1217.88 726.587L1215.85 727.926L1214.45 725.935L974.452 383.435L972.486 380.629L975.759 379.612L1165.76 320.612L1168.25 319.841L1168.92 322.356ZM-30.8037 244.099L233.196 320.599L235.742 321.337L234.856 323.835L103.856 693.335L103.013 695.715L100.642 694.848L54.1416 677.848L52.8262 677.367L52.5498 675.994L-33.9502 246.994L-34.7656 242.951L-30.8037 244.099ZM1486.09 496.091L1484.67 497.363C1452.42 526.192 1404.06 569.785 1363.75 606.865C1343.6 625.407 1325.48 642.31 1312.4 654.922C1305.86 661.231 1300.6 666.445 1296.98 670.246C1295.17 672.152 1293.8 673.667 1292.9 674.771C1292.45 675.327 1292.15 675.73 1291.98 675.996C1291.97 676.019 1291.96 676.04 1291.94 676.058C1291.91 676.234 1291.84 676.503 1291.68 676.788C1291.54 677.013 1291.12 677.483 1290.82 677.704C1290.41 677.914 1289.53 678.094 1289.09 678.063C1288.15 677.916 1287.64 677.297 1287.57 677.223C1287.3 676.917 1287.16 676.598 1287.14 676.545C1287.08 676.42 1287.03 676.295 1286.99 676.19C1286.84 675.79 1286.64 675.171 1286.42 674.415C1285.96 672.864 1285.29 670.432 1284.43 667.229C1282.72 660.811 1280.24 651.21 1277.18 639.158C1271.05 615.052 1262.56 581.105 1253.14 543.14C1234.28 467.207 1211.65 375.179 1196.57 313.595L1196.06 311.516L1198.04 310.692L1357.54 244.192L1359.69 243.294L1486.09 496.091ZM1287 675.384C1287 675.439 1287 675.479 1287 675.5C1287 675.461 1287 675.422 1287 675.384ZM1719.05 189.562L1844.55 218.062L1846.14 218.422L1846.45 220.013L1929.95 640.513L1930.8 644.771L1926.69 643.365L1717.69 571.865L1716.21 571.357L1716.02 569.799L1674.02 220.799L1673.84 219.286L1675.1 218.432L1717.1 189.932L1718 189.321L1719.05 189.562ZM1874.45 229.188L1910.49 244H1930V404L1925.11 404.747L1871.11 232.247L1869.52 227.162L1874.45 229.188ZM1265 -33C1265.82 -33 1266.47 -32.6176 1266.88 -32.1602C1267.23 -31.7733 1267.37 -31.3767 1267.43 -31.1885C1267.54 -30.809 1267.55 -30.4768 1267.55 -30.3613C1267.55 -30.0653 1267.51 -29.7601 1267.48 -29.5293C1267.41 -29.0252 1267.28 -28.3404 1267.1 -27.5254C1266.75 -25.8748 1266.17 -23.4708 1265.4 -20.4111C1263.85 -14.2815 1261.5 -5.41779 1258.53 5.53711C1252.59 27.4516 1244.17 57.788 1234.72 91.4873C1215.82 158.889 1192.82 239.769 1177.4 293.688L1177.04 294.968L1175.77 295.378L964.271 363.878L962.569 364.43L961.498 362.998L855.998 221.998L854.834 220.442L856.055 218.931L1058.55 -32.0693L1059.3 -33H1265ZM833.693 76.2998L871.193 144.8L871.974 146.226L870.987 147.517L743.487 314.517L742.029 316.426L740.063 315.047L711.563 295.047L709.729 293.759L710.81 291.795L829.31 76.2949L831.505 72.3027L833.693 76.2998ZM-30.8984 -10.9268L23.6016 2.57324L24.0439 2.68262L24.4199 2.94238L295.42 189.942L296.87 190.943L296.415 192.646L269.415 293.646L268.717 296.258L266.168 295.357L-19.832 194.357L-21.3926 193.807L-21.4951 192.155L-33.9951 -8.34473L-34.207 -11.7461L-30.8984 -10.9268ZM1290.52 -10.7832L1563.02 110.717L1564.97 111.588L1564.41 113.653L1551.41 161.653L1551.06 162.959L1549.77 163.377C1491.83 182.224 1405.38 210.378 1332.89 234.051C1296.65 245.887 1263.9 256.603 1239.96 264.476C1227.98 268.412 1218.21 271.636 1211.31 273.934C1207.86 275.083 1205.12 275.999 1203.19 276.656C1202.22 276.985 1201.46 277.247 1200.92 277.439C1200.64 277.536 1200.43 277.612 1200.27 277.67C1200.24 277.683 1200.21 277.695 1200.18 277.704C1199.91 277.848 1199.51 278 1199 278C1198.92 278 1198.66 277.998 1198.34 277.912C1198.18 277.869 1197 277.546 1196.6 276.219C1196.25 275.06 1196.83 274.206 1197.02 273.962C1197.05 273.893 1197.09 273.806 1197.14 273.696C1197.3 273.301 1197.52 272.725 1197.81 271.96C1198.37 270.436 1199.13 268.253 1200.08 265.469C1201.97 259.905 1204.58 252.002 1207.74 242.294C1214.04 222.882 1222.52 196.29 1231.85 166.85C1250.49 107.97 1272.48 37.7156 1287.11 -9.24414L1287.95 -11.9287L1290.52 -10.7832ZM1930 47V224.99L1926.18 222.625L1880.18 194.125L1878.53 193.1L1879.12 191.244L1925.12 46.2441L1930 47ZM1912.42 -7.85254C1903.92 23.8144 1891.76 69.9647 1881.69 110.004C1876.65 130.025 1872.13 148.506 1868.85 162.879C1867.21 170.067 1865.89 176.211 1864.96 181C1864.19 185 1863.72 187.929 1863.55 189.716C1863.73 189.956 1863.89 190.226 1864.01 190.529C1864.21 191.034 1864.33 191.738 1864.09 192.504C1863.85 193.262 1863.35 193.759 1862.92 194.056C1862.54 194.318 1861.57 194.849 1860.37 194.397C1859.27 193.983 1858.87 193.05 1858.74 192.712C1858.66 192.483 1858.6 192.241 1858.56 192.001C1857.58 191.394 1856 190.576 1853.78 189.569C1850.84 188.235 1847.02 186.665 1842.49 184.917C1833.45 181.423 1821.72 177.258 1808.94 172.901C1783.4 164.189 1753.76 154.736 1733.26 148.388L1731.6 147.875L1731.5 146.142L1729.08 103.396L1647.83 49.8818C1634.7 56.4552 1615.81 66.0552 1600.19 74.2988C1592.12 78.56 1584.95 82.445 1579.9 85.3574C1577.37 86.8193 1575.43 88.0065 1574.18 88.8594C1573.82 89.106 1573.55 89.3041 1573.36 89.4551C1573.35 89.4864 1573.34 89.5191 1573.32 89.5508C1572.8 90.7522 1571.68 90.9847 1571.43 91.0273C1571.08 91.0879 1570.79 91.0588 1570.69 91.0469C1570.3 91.0023 1569.92 90.865 1569.78 90.8154C1569.33 90.6602 1568.69 90.3988 1567.92 90.0693C1566.36 89.3982 1564.02 88.3437 1561.1 87.001C1555.25 84.3115 1547 80.428 1537.78 76.0459C1519.32 67.28 1496.91 56.5023 1481.91 49.251L1480.5 48.5684V2.57812L1482.92 2.50098L1909.92 -10.999L1913.29 -11.1055L1912.42 -7.85254ZM360.315 -7.55762C349.341 19.4015 333.357 59.2257 320.083 93.4873C313.445 110.62 307.49 126.347 303.179 138.374C301.022 144.39 299.285 149.459 298.081 153.305C297.478 155.229 297.017 156.824 296.704 158.064C296.524 158.777 296.41 159.319 296.34 159.712C296.378 159.792 296.414 159.874 296.445 159.959C296.522 160.166 296.879 161.158 296.273 162.207C295.575 163.416 294.35 163.5 294 163.5C293.366 163.5 292.736 163.277 292.232 162.835C291.779 162.437 291.558 161.976 291.449 161.672C291.42 161.589 291.395 161.507 291.373 161.426C290.465 160.498 288.69 158.887 286.05 156.624C282.912 153.935 278.716 150.457 273.7 146.374C263.671 138.209 250.408 127.657 235.883 116.216C206.835 93.3354 172.767 66.9221 149.475 48.9805L148.5 48.2305V2.6582L150.837 2.50488L357.837 -10.9951L361.82 -11.2549L360.315 -7.55762ZM1011 -11L1007.38 -6.85742L888.385 129.643L885.565 132.876L884.142 128.83L855.642 47.8301L855.284 46.8154L855.776 45.8584L884.276 -9.6416L884.974 -11H1011ZM119 -11V55.2568L77.4199 -7.11328L74.8291 -11H119ZM860.365 -29.6914L833.865 47.8086L832.756 51.0537L830.007 49.0049C817.584 39.75 799.144 25.865 784.206 14.2891C776.741 8.50448 770.129 3.2788 765.575 -0.507812C763.31 -2.39171 761.502 -3.96117 760.35 -5.08105C759.809 -5.60677 759.271 -6.16631 758.927 -6.66992C758.832 -6.80845 758.712 -7.0008 758.607 -7.23145C758.519 -7.42693 758.346 -7.85694 758.351 -8.41602C758.357 -9.0973 758.644 -9.93944 759.43 -10.5039C760.069 -10.9628 760.722 -11 761 -11C760.948 -11 761.159 -11.0123 761.857 -11.1309C762.466 -11.2343 763.294 -11.3909 764.326 -11.5967C766.388 -12.0076 769.207 -12.6049 772.613 -13.3486C779.422 -14.8354 788.531 -16.8955 798.516 -19.1865C818.483 -23.7682 841.928 -29.2667 857.425 -32.9326L861.83 -33.9756L860.365 -29.6914ZM1650.5 435.51L1649.16 436.213L1532.16 497.713L1529.93 498.887L1528.78 496.643L1400.78 247.643L1399.46 245.072L1402.19 244.135L1561.19 189.635L1561.99 189.362L1562.79 189.627L1648.79 218.127L1650.5 218.694V435.51Z" fill="#4A4267" stroke="#0A0614" stroke-width="5"/>
<path d="M838.539 244.054L1038.54 526.054L1040.05 528.187L1037.85 529.602L695.498 750.042L729.366 849.191L730.26 851.809L727.566 852.436L570.566 888.936L568.671 889.376L567.778 887.646L462.278 683.146L461.509 681.655L462.598 680.378L834.598 243.878L836.681 241.434L838.539 244.054ZM1686.47 592.598L1720.97 804.098L1721.44 807H1484.12L1483.6 805.192L1431.6 624.692L1430.79 621.879L1433.69 621.519L1683.69 590.519L1686.08 590.223L1686.47 592.598Z" fill="#1CB3C4" stroke="#0A0614" stroke-width="5"/>
<path d="M45.4924 952.5L46.2151 953.182L142.715 1044.18L145.373 1046.69L142.074 1048.26L7.57446 1112.26L5.20825 1113.38L4.19458 1110.97C-6.64686 1085.11 -22.3133 1046.32 -34.074 1013.98C-39.9498 997.82 -44.8742 983.206 -47.7292 972.604C-49.1494 967.33 -50.0967 962.911 -50.3591 959.748C-50.4868 958.209 -50.4794 956.701 -50.1267 955.479C-49.9455 954.852 -49.6196 954.109 -48.9939 953.503C-48.3066 952.837 -47.4243 952.5 -46.4998 952.5H45.4924ZM-2.02905 540L-1.56909 541.917L30.9309 677.417L31.1575 678.361L30.6868 679.211L-5.31323 744.211L-9.44312 751.669L-9.99487 743.162C-12.1651 709.691 -13.892 659.509 -13.7751 617.681C-13.7168 596.775 -13.1979 577.897 -12.0349 564.218C-11.4551 557.398 -10.7066 551.762 -9.7439 547.786C-9.26761 545.819 -8.70173 544.094 -7.98804 542.806C-7.3638 541.679 -6.12383 540 -3.99976 540H-2.02905ZM1665.4 480.298L1691.9 570.798L1692.84 574H1481.5C1481.11 574 1480.44 573.911 1479.83 573.405C1479.18 572.874 1478.95 572.182 1478.89 571.694C1478.8 570.917 1479.08 570.283 1479.15 570.116C1479.38 569.597 1479.75 569.029 1480.1 568.522C1480.87 567.438 1482.07 565.934 1483.57 564.148C1486.6 560.554 1491.01 555.602 1496 550.129C1505.99 539.173 1518.35 526.032 1526.69 517.275L1527.16 516.78L1527.82 516.594L1662.32 478.594L1664.7 477.921L1665.4 480.298ZM304.5 1098H237.5C236.876 1098 236.408 1097.77 236.312 1097.72C236.128 1097.63 235.972 1097.53 235.863 1097.46C235.638 1097.31 235.401 1097.13 235.176 1096.95C234.715 1096.57 234.119 1096.05 233.415 1095.41C231.999 1094.11 230.032 1092.23 227.604 1089.87C222.742 1085.12 215.967 1078.35 207.925 1070.21C191.838 1053.94 170.643 1032.18 149.451 1010.24C128.26 988.295 107.066 966.163 90.9797 949.139C82.9377 940.628 76.1657 933.386 71.3069 928.081C68.879 925.43 66.918 923.251 65.512 921.634C64.8104 920.827 64.2329 920.144 63.8 919.604C63.4325 919.146 62.9984 918.587 62.7639 918.118C62.4523 917.495 62.3893 916.858 62.3762 916.437C62.3618 915.97 62.4033 915.481 62.469 915.005C62.6006 914.051 62.867 912.901 63.2239 911.618C63.9415 909.039 65.1048 905.647 66.592 901.676C69.5721 893.719 73.9325 883.23 78.8684 871.832C88.7452 849.024 100.982 822.447 109.239 804.934L110.241 802.807L112.426 803.678L302.926 879.678L304.5 880.306V1098Z" fill="#4A4267" stroke="#0A0614" stroke-width="5"/>
</g>
<defs>
<clipPath id="clip0_9_213">
<rect width="1920" height="1080" fill="white"/>
</clipPath>
</defs>
</svg>
